#!OML:ASF I:\golf\golf\golf 2\Subject 1\2002-09-07\Subject1.ASF
:FULLY-SPECIFIED
:DEGREES
330
root -2.8529 17.2632 -2.40248 69.8557 42.0959 11.7879
lowerback 41.6748 6.12211 9.52617
upperback 14.9737 12.1521 10.9347
thorax -3.58787 5.57267 2.28054
lowerneck -10.5858 -10.7753 1.48465
upperneck -7.12889 -15.1565 -3.18538
head -0.900015 -7.78911 -1.53398
rclavicle 1.39944e-013 2.06736e-014
rhumerus 61.732 -27.4236 -46.7062
rradius 27.9208
rwrist -9.27779
rhand -45.5409 18.738
rfingers 7.12502
rthumb -18.3041 -10.4208
lclavicle 1.39944e-013 2.06736e-014
lhumerus -16.5155 -27.1987 92.2166
lradius 80.5311
lwrist 21.7673
lhand -11.9954 26.976
lfingers 7.12502
lthumb 14.0614 56.4803
rfemur -91.5931 -6.93159 25.9807
rtibia 39.9309
rfoot -6.84312 1.03148
rtoes 19.557
lfemur -64.2459 -3.76971 -7.18464
ltibia 25.4693
lfoot -7.51938 -13.2559
ltoes -9.64057
331
root -2.84659 17.2702 -2.40666 69.7175 42.3752 11.8065
lowerback 42.0025 5.71849 9.96772
upperback 14.8501 11.8878 10.7922
thorax -3.69419 5.45718 2.00034
lowerneck -10.4441 -10.6824 1.25763
upperneck -7.12224 -14.9878 -2.97584
head -0.880643 -7.69536 -1.42534
rclavicle -8.26944e-014 4.29375e-014
rhumerus 63.157 -27.1147 -49.4813
rradius 27.4012
rwrist -7.07455
rhand -45.6081 19.1242
rfingers 7.12502
rthumb -18.3687 -10.0285
lclavicle -8.26944e-014 4.29375e-014
lhumerus -16.6625 -26.7723 92.0774
lradius 80.5042
lwrist 21.7269
lhand -11.8649 26.6935
lfingers 7.12502
lthumb 14.1872 56.1891
rfemur -91.4194 -7.08564 26.2652
rtibia 39.9128
rfoot -6.89176 1.09442
rtoes 19.5932
lfemur -64.1452 -3.93269 -6.92182
ltibia 25.4911
lfoot -7.69827 -13.1976
ltoes -10.4705
332
root -2.84998 17.2635 -2.40129 69.9046 42.1617 11.8063
lowerback 41.7114 6.00096 9.62995
upperback 14.8922 12.056 10.8635
thorax -3.64984 5.52979 2.18565
lowerneck -10.3398 -10.7562 1.37486
upperneck -7.22169 -15.1132 -3.03538
head -0.9465 -7.76075 -1.45156
rclavicle -5.08889e-014 1.04958e-013
rhumerus 62.0179 -27.2704 -47.3952
rradius 27.8632
rwrist -8.71993
rhand -45.492 18.5826
rfingers 7.12502
rthumb -18.257 -10.5806
lclavicle -5.08889e-014 1.04958e-013
lhumerus -16.5942 -27.0379 92.1902
lradius 80.4382
lwrist 21.7094
lhand -11.8806 26.3703
lfingers 7.12502
lthumb 14.172 55.8669
rfemur -91.6122 -6.96277 26.0237
rtibia 39.9068
rfoot -6.88076 1.05848
rtoes 19.7328
lfemur -64.307 -3.85312 -7.06806
ltibia 25.5071
lfoot -7.89516 -13.1814
ltoes -11.0444
333
root -2.8456 17.2564 -2.4002 70.1246 41.9603 12.028
lowerback 41.7882 5.90887 9.50525
upperback 14.7863 11.9113 10.7333
thorax -3.78411 5.458 2.14585
lowerneck -10.2881 -10.7108 1.25944
upperneck -7.16918 -15.0296 -2.98134
head -0.922187 -7.71406 -1.41569
rclavicle 1.97194e-013 3.65764e-014
rhumerus 63.0001 -27.1683 -49.3184
rradius 27.4658
rwrist -7.08036
rhand -45.5627 18.6675
rfingers 7.12502
rthumb -18.325 -10.4893
lclavicle 1.97194e-013 3.65764e-014
lhumerus -16.6712 -26.9149 92.1711
lradius 80.3656
lwrist 21.6479
lhand -11.9236 26.0904
lfingers 7.12502
lthumb 14.1307 55.5899
rfemur -91.6945 -7.04703 25.6907
rtibia 39.8988
rfoot -6.84782 0.981255
rtoes 19.6268
lfemur -64.3753 -4.01434 -7.2527
ltibia 25.4896
lfoot -7.8226 -13.1603
ltoes -10.3982
334
root -2.84542 17.2614 -2.40109 69.9993 42.1743 11.9663
lowerback 41.7517 5.93007 9.75688
upperback 14.8459 12.027 10.8331
thorax -3.67954 5.51865 2.10094
lowerneck -10.2621 -10.7694 1.39838
upperneck -7.23848 -15.1353 -3.05395
head -0.968192 -7.77116 -1.45514
rclavicle 8.5875e-014 1.43125e-014
rhumerus 62.0605 -27.3395 -47.636
rradius 27.8122
rwrist -8.33302
rhand -45.6047 18.1705
rfingers 7.12502
rthumb -18.3655 -10.9825
lclavicle 8.5875e-014 1.43125e-014
lhumerus -16.5203 -27.1553 92.263
lradius 80.2288
lwrist 21.6568
lhand -11.9229 25.784
lfingers 7.12502
lthumb 14.1313 55.2834
rfemur -91.5857 -7.07984 25.9375
rtibia 39.886
rfoot -6.87643 0.986699
rtoes 19.4793
lfemur -64.3013 -3.99997 -7.07665
ltibia 25.4667
lfoot -7.58762 -13.2593
ltoes -9.36147
